<?xml version="1.0" encoding="utf-8"?>
<!-- Generator: Adobe Illustrator 24.2.0, SVG Export Plug-In . SVG Version: 6.00 Build 0)  -->
<svg version="1.1" id="Layer_1" xmlns="http://www.w3.org/2000/svg" xmlns:xlink="http://www.w3.org/1999/xlink" x="0px" y="0px"
	 viewBox="0 0 360 360" style="enable-background:new 0 0 360 360;" xml:space="preserve">
<g>
	<path d="M106.6,25.8C126.8,8.6,153.5,0,186.7,0c21.4,0,39.6,3.9,54.7,11.7c15.1,7.8,26.6,18.3,34.5,31.5
		c7.9,13.2,11.8,28.3,11.8,45.1c0,21.2-6.4,39.4-19.2,54.8c-12.8,15.4-32.4,24.5-58.7,27.5v3c25.3,4,45.7,13.7,61.1,29.3
		c15.4,15.5,23.2,36.4,23.2,62.5c0,27.8-9.1,50.5-27.4,68.2c-18.2,17.7-44.9,26.5-80.1,26.5c-33.2,0-60.5-8.9-82.1-26.8
		c-21.5-17.9-34.4-43.1-38.7-75.9h21.7c3.9,24.5,14.5,44.4,31.5,59.8c17.1,15.4,39.6,23.1,67.5,23.1c28.3,0,49.7-7.1,64.3-21.3
		c14.6-14.2,21.9-32.6,21.9-55c0-27.1-10.3-47.4-30.8-61c-20.5-13.6-49.9-20.3-88-20.3h-9.4v-19.3h9.9
		c74.3-0.3,111.4-24.8,111.4-73.4c0-21.2-7-38.2-20.9-51.1c-14-12.9-33.6-19.3-58.9-19.3c-24.6,0-45.4,6.5-62.3,19.6
		c-16.9,13.1-27,32.3-30.3,57.8H71.8C74.8,66.6,86.4,43,106.6,25.8z"/>
</g>
</svg>
