<?xml version="1.0" encoding="utf-8"?>
<!-- Generator: Adobe Illustrator 24.2.0, SVG Export Plug-In . SVG Version: 6.00 Build 0)  -->
<svg version="1.1" id="Layer_1" xmlns="http://www.w3.org/2000/svg" xmlns:xlink="http://www.w3.org/1999/xlink" x="0px" y="0px"
	 viewBox="0 0 360 360" style="enable-background:new 0 0 360 360;" xml:space="preserve">
<path d="M281.3,20.6H88.2v144.3c9.1-12.7,22.3-23.2,39.7-31.4c17.4-8.2,36.4-12.3,56.8-12.3c27.2,0,49.4,5.5,66.6,16.3
	c17.3,10.9,29.8,25.1,37.5,42.5c7.7,17.4,11.6,36.4,11.6,56.8c0,22.8-4.2,43.5-12.6,62.1c-8.4,18.6-21.5,33.5-39.5,44.8
	c-17.9,11.2-40.5,16.8-67.6,16.8c-32.9,0-59.9-9-81.2-26.9c-21.3-17.9-34.3-42.2-39-72.7h22.1c5,25.8,16.3,45.5,33.7,59.1
	c17.4,13.6,38.9,20.4,64.4,20.4c32.5,0,57-9.5,73.4-28.4c16.4-18.9,24.6-43.8,24.6-74.7c0-30.2-8.3-53.8-24.9-70.9
	c-16.6-17.1-40.3-25.6-71.2-25.6c-21.1,0-40,4.7-56.6,14.1c-16.6,9.4-29.4,22.3-38.5,38.7H66.6V0.4h214.8V20.6z"/>
</svg>
