<?xml version="1.0" encoding="UTF-8" standalone="no"?>
<!-- Created with Inkscape (http://www.inkscape.org/) -->

<svg
   xmlns:dc="http://purl.org/dc/elements/1.1/"
   xmlns:cc="http://creativecommons.org/ns#"
   xmlns:rdf="http://www.w3.org/1999/02/22-rdf-syntax-ns#"
   xmlns:svg="http://www.w3.org/2000/svg"
   xmlns="http://www.w3.org/2000/svg"
   xmlns:sodipodi="http://sodipodi.sourceforge.net/DTD/sodipodi-0.dtd"
   xmlns:inkscape="http://www.inkscape.org/namespaces/inkscape"
   width="415.78641"
   height="375.02026"
   id="svg2"
   sodipodi:version="0.32"
   inkscape:version="0.48.5 r10040"
   sodipodi:docname="H2g2.svg"
   inkscape:output_extension="org.inkscape.output.svg.inkscape"
   version="1.0"
   inkscape:export-filename="/Users/BakaOnigiri/Desktop/h2g2.png"
   inkscape:export-xdpi="90"
   inkscape:export-ydpi="90"
   sodipodi:modified="TRUE">
  <defs
     id="defs4" />
  <sodipodi:namedview
     id="base"
     pagecolor="#ffffff"
     bordercolor="#666666"
     borderopacity="1.0"
     gridtolerance="10000"
     guidetolerance="10"
     objecttolerance="10"
     inkscape:pageopacity="0.0"
     inkscape:pageshadow="2"
     inkscape:zoom="0.70000001"
     inkscape:cx="588.4993"
     inkscape:cy="31.690763"
     inkscape:document-units="px"
     inkscape:current-layer="layer1"
     inkscape:window-width="1087"
     inkscape:window-height="783"
     inkscape:window-x="1294"
     inkscape:window-y="2169"
     showgrid="false"
     inkscape:window-maximized="0" />
  <metadata
     id="metadata7">
    <rdf:RDF>
      <cc:Work
         rdf:about="">
        <dc:format>image/svg+xml</dc:format>
        <dc:type
           rdf:resource="http://purl.org/dc/dcmitype/StillImage" />
      </cc:Work>
    </rdf:RDF>
  </metadata>
  <g
     inkscape:label="Layer 1"
     inkscape:groupmode="layer"
     id="layer1"
     transform="translate(-170.5437,-277.09375)">
    <path
       inkscape:connector-curvature="0"
       id="path1933"
       d="m 388.6687,277.09375 c -43.30908,0 -83.16279,14.80092 -114.75,39.59375 -3.0477,-1.87647 -74.2433,-45.25066 -98.71875,-14.5 -20.25557,25.44885 32.3125,96.59374 32.3125,96.59375 l 10.53125,-21.0625 c 0,0 -32.74138,-45.57352 -20.1875,-63.03125 11.14596,-15.49985 63.19555,9.40568 65.78125,10.65625 -17.30205,15.71864 -31.61477,34.6452 -41.96875,55.84375 27.80304,45.63014 116.38404,129.05961 133.84375,137.96875 13.01469,-10.00964 16.0423,-30.8672 -9.53125,-54.6875 -19.39158,-28.14159 -29.61493,-57.00913 -50.5,-70.46875 -16.68765,-10.75453 -38.19903,-6.5025 -39.1875,-15.34375 -3.16999,0.32045 1.79409,-25.23099 33.96875,-26.0625 5.26494,-0.13606 11.25598,0.40366 18.0625,1.8125 39.53336,8.18274 44.89356,46.47995 58.3125,52.0625 28.7947,11.97916 128.34122,32.97728 78.84375,175.15625 16.46747,10.19852 29.22243,18.19206 50.875,30.78125 19.28994,-13.72928 35.87252,-31.02007 48.6875,-50.9375 1.23555,1.9097 32.27042,50.18598 19.25,64.8125 -13.41347,15.06802 -64.09375,-9.625 -64.09375,-9.625 l -18.21875,12.125 c -10e-6,-10e-6 70.83,41.3695 97.6875,13.9375 24.69286,-25.21757 -27.04418,-92.38181 -27.59375,-93.09375 14.16213,-26.09951 22.18751,-55.95755 22.1875,-87.6875 0,-102.03208 -83.14346,-184.84375 -185.59375,-184.84375 z m 91.03125,75 c 4.89461,-0.1398 10.24725,1.41387 14.96875,6.6875 13.76656,15.37646 3.7288,26.08371 0.15625,29.65625 -3.48213,3.48214 -22.80357,21.88393 -26.0625,23.9375 -3.13214,1.97368 -17.97274,10.10576 -28.75,-1.625 -10.68878,-11.65039 -4.82143,-24.9375 -2.5,-28.21875 2.40636,-3.40131 23.50254,-23.00001 27.84375,-25.71875 2.48605,-1.55693 8.05067,-4.539 14.34375,-4.71875 z m 27.125,45.28125 c 4.99836,-0.0479 10.57261,1.81275 15.625,7.46875 11.98082,13.41216 3.38505,26.95871 -0.1875,30.53125 -3.48215,3.48213 -22.61607,22.41518 -25.875,24.46875 -3.13214,1.97368 -17.09774,9.23076 -27.875,-2.5 -10.68878,-11.65039 -4.82143,-24.9375 -2.5,-28.21875 2.40636,-3.40131 23.01065,-22.86012 27.6875,-26.96875 2.53768,-2.22936 7.4602,-4.727 13.125,-4.78125 z m -294.59375,7.0625 c -5.94761,18.10403 -9.15625,37.42574 -9.15625,57.5 0,57.39304 26.30983,108.71275 67.5625,142.625 28.40856,-27.66289 46.92396,-45.61146 70.3125,-68.90625 -24.0756,-20.82981 -104.41768,-92.26612 -128.8125,-130.8125 0.0421,-0.16059 0.0532,-0.25055 0.0937,-0.40625 z m 307.09375,57.5 c 4.0565,-0.19022 8.51059,0.7833 12.75,4.15625 8.57355,6.82122 9.64844,21.96764 5.71875,28.21875 -3.90201,6.20708 -10.83482,12.75893 -14.09375,14.8125 -3.13216,1.97369 -17.72718,4.87601 -25.1875,-2.3125 -9.84098,-9.48245 -5.69643,-23.5 -3.375,-26.78125 2.40636,-3.40131 7.59629,-11.40626 11.9375,-14.125 2.48605,-1.55691 7.0345,-3.72418 12.25,-3.96875 z m -86.28125,137.90625 -43.4375,46.9375 c 30.71441,-0.15224 59.65196,-7.74057 85.125,-21.0625 l -41.6875,-25.875 z"
       style="fill:#317ddb;fill-opacity:1;fill-rule:evenodd;stroke:none" />
  </g>
</svg>
