<?xml version="1.0" encoding="UTF-8" standalone="no"?>
<!-- Created with Inkscape (http://www.inkscape.org/) -->

<svg
   xmlns:dc="http://purl.org/dc/elements/1.1/"
   xmlns:cc="http://creativecommons.org/ns#"
   xmlns:rdf="http://www.w3.org/1999/02/22-rdf-syntax-ns#"
   xmlns:svg="http://www.w3.org/2000/svg"
   xmlns="http://www.w3.org/2000/svg"
   xmlns:sodipodi="http://sodipodi.sourceforge.net/DTD/sodipodi-0.dtd"
   xmlns:inkscape="http://www.inkscape.org/namespaces/inkscape"
   width="744.09448819"
   height="1052.3622047"
   id="svg2"
   version="1.1"
   inkscape:version="0.48.5 r10040"
   sodipodi:docname="New document 1">
  <defs
     id="defs4" />
  <sodipodi:namedview
     id="base"
     pagecolor="#ffffff"
     bordercolor="#666666"
     borderopacity="1.0"
     inkscape:pageopacity="0.0"
     inkscape:pageshadow="2"
     inkscape:zoom="0.35"
     inkscape:cx="375"
     inkscape:cy="520"
     inkscape:document-units="px"
     inkscape:current-layer="layer1"
     showgrid="false"
     inkscape:window-width="1004"
     inkscape:window-height="715"
     inkscape:window-x="134"
     inkscape:window-y="48"
     inkscape:window-maximized="0" />
  <metadata
     id="metadata7">
    <rdf:RDF>
      <cc:Work
         rdf:about="">
        <dc:format>image/svg+xml</dc:format>
        <dc:type
           rdf:resource="http://purl.org/dc/dcmitype/StillImage" />
        <dc:title></dc:title>
      </cc:Work>
    </rdf:RDF>
  </metadata>
  <g
     inkscape:label="Layer 1"
     inkscape:groupmode="layer"
     id="layer1">
    <g
       style="font-size:243.49179077px;font-style:normal;font-variant:normal;font-weight:500;font-stretch:normal;text-align:start;line-height:125%;letter-spacing:0px;word-spacing:0px;writing-mode:lr-tb;text-anchor:start;fill:#000000;fill-opacity:1;stroke:none;font-family:Brush Script Std;-inkscape-font-specification:Brush Script Std Medium"
       id="text2985"
       transform="matrix(0.88623505,0,0,0.88623505,19.25228,65.772645)">
      <path
         d="m 252.01578,422.79731 c 2.43492,-3.40889 9.49618,-11.44412 9.49618,-15.82697 0,-3.89586 -4.62635,-4.62634 -7.79174,-4.62634 -14.12251,0 -19.47935,11.44412 -26.78409,21.42727 -26.0536,0.97397 -28.00157,4.86986 -41.15012,26.29712 l -2.67841,4.38285 c 12.90506,-1.94793 8.27874,-0.97397 23.13172,-0.97397 -9.00918,15.33997 -22.40125,27.75808 -37.01075,38.95869 l 2.67841,9.25269 12.41808,-9.98317 0.48699,0.48699 c -3.16539,7.06125 -6.33079,16.31395 -6.33079,24.34918 0,9.73966 5.84381,16.31395 15.33998,16.31395 20.69678,0 46.99393,-26.05364 61.35993,-39.20218 l -1.21745,-10.71364 c -25.32313,18.01837 -34.08886,25.32315 -41.88059,25.32315 -5.60031,0 -7.30476,-3.1654 -7.30476,-8.52222 0,-14.60949 13.87904,-34.57584 22.15776,-45.28947 26.78407,1.70444 28.73204,-7.30478 40.17614,-30.43647 l -15.09649,-1.21746"
         id="path2990"
         inkscape:connector-curvature="0" />
      <path
         d="m 329.19507,458.10362 0.48699,0.48698 c -48.21133,48.69831 -55.75963,47.96788 -60.62946,48.94185 -3.65237,0.73047 -4.62635,-3.65238 -4.86984,-4.86984 0,-11.93108 7.06132,-26.78411 65.01231,-44.55899 m -13.14856,32.87139 0.48699,0.48698 c -3.16539,6.57427 -9.0092,19.47935 -9.0092,27.27108 0,7.06126 3.65239,12.90507 11.68761,12.90507 11.93108,0 44.55901,-26.05364 55.02914,-37.98472 l -1.94793,-9.0092 c -10.47014,7.06126 -24.34919,19.47934 -34.57584,19.47934 -3.89586,0 -7.54824,-1.70444 -7.54824,-5.8438 0,-11.4441 21.18378,-28.48855 21.18378,-36.28028 0,-5.35681 -2.43492,-8.03523 -7.06126,-9.98316 2.19143,-0.73047 8.52222,-3.16539 8.52222,-6.08729 0,-2.9219 -4.62636,-11.9311 -15.82697,-11.68761 -28.24502,0.73048 -91.55291,31.89746 -90.57895,62.3339 0.48699,12.66156 14.60952,28.73203 21.42728,28.73203 5.60031,0 21.18379,-12.66158 25.81013,-16.31395 l 22.40124,-18.01839"
         id="path2992"
         inkscape:connector-curvature="0" />
      <path
         d="m 409.38377,455.91219 c 1.46095,8.27871 2.43492,14.853 3.16539,19.96633 -0.73047,14.12251 -4.62636,18.26189 -19.23585,27.27108 -4.62634,-6.33078 -9.98317,-13.87904 -18.99236,-14.36602 l 35.06282,-32.87139 m 33.11488,38.95869 c -11.93108,9.00918 -21.42729,16.31394 -37.01075,13.63554 15.58346,-9.49617 31.65393,-24.3492 31.65393,-44.31551 0,-10.71363 -3.65238,-18.99237 -4.62634,-28.24505 -0.73048,-6.81776 -2.19143,-9.00919 -9.49618,-9.00919 -8.7657,0 -13.39205,7.79174 -13.87903,15.82696 l -52.83772,48.45487 c -1.94793,1.94793 -5.8438,5.35682 -5.8438,8.52221 0,2.19143 1.70444,4.62635 4.13936,4.62635 2.19142,0 3.89587,-1.70445 5.35682,-3.1654 4.38284,17.77489 22.40126,27.02759 38.71519,27.75807 19.47932,0.97396 46.01996,-21.1838 60.87295,-36.03679 l -2.43492,-9.25269 -14.60951,11.20063"
         id="path2994"
         inkscape:connector-curvature="0" />
      <path
         d="m 529.27304,422.79731 c 2.43492,-3.40889 9.49618,-11.44412 9.49618,-15.82697 0,-3.89586 -4.62634,-4.62634 -7.79173,-4.62634 -14.12251,0 -19.47935,11.44412 -26.7841,21.42727 -26.0536,0.97397 -28.00157,4.86986 -41.15011,26.29712 l -2.67841,4.38285 c 12.90505,-1.94793 8.27873,-0.97397 23.13172,-0.97397 -9.00919,15.33997 -22.40126,27.75808 -37.01075,38.95869 l 2.67841,9.25269 12.41808,-9.98317 0.48698,0.48699 c -3.16539,7.06125 -6.33079,16.31395 -6.33079,24.34918 0,9.73966 5.84382,16.31395 15.33999,16.31395 20.69678,0 46.99393,-26.05364 61.35993,-39.20218 l -1.21746,-10.71364 c -25.32312,18.01837 -34.08886,25.32315 -41.88059,25.32315 -5.6003,0 -7.30475,-3.1654 -7.30475,-8.52222 0,-14.60949 13.87904,-34.57584 22.15775,-45.28947 26.78407,1.70444 28.73204,-7.30478 40.17615,-30.43647 l -15.0965,-1.21746"
         id="path2996"
         inkscape:connector-curvature="0" />
      <path
         d="m 644.43705,485.3747 -1.94794,-9.0092 -54.05518,47.96788 -0.48698,-0.48698 36.03679,-53.56819 c 3.40888,-5.11333 9.98316,-15.0965 9.98316,-21.42728 0,-3.40888 -2.43492,-12.90507 -6.57428,-12.17459 -4.62634,0.73047 -20.20984,17.53143 -45.28947,40.66313 -10.22665,9.49617 -21.91428,19.96633 -34.81933,21.42728 0.24349,-5.11333 1.70445,-9.98317 4.62635,-14.12253 8.03522,-6.33078 35.5498,-31.65394 35.5498,-40.90662 0,-3.40888 -6.81778,-11.20062 -10.47015,-11.20062 -6.81776,0.24349 -48.45487,31.16698 -47.4809,60.38596 0.73048,18.01838 12.41809,28.24505 19.23585,28.73203 2.9219,0.2435 20.69682,-12.90508 40.66313,-29.70599 l 0.48699,0.48698 -32.6279,55.02914 c -1.94794,3.16539 -6.57428,10.71365 -6.57428,14.60951 0,4.13936 2.19143,16.07046 7.30475,16.07046 3.89587,0 10.71364,-9.49618 13.14856,-12.17459 l 73.29103,-80.59578"
         id="path2998"
         inkscape:connector-curvature="0" />
    </g>
  </g>
</svg>
