<?xml version="1.0" encoding="utf-8"?>
<!-- Generator: Adobe Illustrator 24.2.0, SVG Export Plug-In . SVG Version: 6.00 Build 0)  -->
<svg version="1.1" id="Layer_1" xmlns="http://www.w3.org/2000/svg" xmlns:xlink="http://www.w3.org/1999/xlink" x="0px" y="0px"
	 viewBox="0 0 360 360" style="enable-background:new 0 0 360 360;" xml:space="preserve">
<style type="text/css">
	.st0{fill:#231F20;}
</style>
<path class="st0" d="M86.5,21.8C106,7.3,135.3,0,174.5,0c39.2,0,69.2,7.3,90.4,21.8s31.7,36.3,31.7,65.2c0,9.4-0.8,18-2.5,25.6
	c-1.7,7.5-5.5,15.5-11.3,23.7c-5.9,8.2-11.7,15.5-17.2,22c-5.7,6.5-15.1,14.9-28.5,25.4c-20.3,16.1-41.5,32.3-63.7,48.4
	c-22.2,15.9-35.2,25.4-39,28.1l-30.8,22.2h121.4c23.3,0,39.8-5,49.7-15.1c9.9-10.1,16.8-26,20.8-47.6h8.6l-5,140.3H60.7v-58.7
	l51.2-47.2c34.8-31.7,59.3-60,73.8-84.7c14.5-24.7,21.8-52.2,21.8-82s-3.1-50.3-9.6-61.2c-6.5-10.9-17.2-16.4-32.5-16.4
	s-25.8,4-31.9,11.7c-6.1,7.8-9,15.1-9,22.2c0,7.1,1,13.4,2.9,18.7h15.1c2.7,7.1,4,15.5,4,25.6c0,9.9-4.2,18.7-12.6,25.8
	c-8.4,7.3-19.5,10.9-33.3,10.9s-24.5-4.4-32.1-13.4c-7.5-9-11.3-20.1-11.3-33.8C57.1,54.9,66.8,36.3,86.5,21.8z"/>
</svg>
