<?xml version="1.0" encoding="utf-8"?>
<!-- Generator: Adobe Illustrator 24.2.0, SVG Export Plug-In . SVG Version: 6.00 Build 0)  -->
<svg version="1.1" id="Layer_1" xmlns="http://www.w3.org/2000/svg" xmlns:xlink="http://www.w3.org/1999/xlink" x="0px" y="0px"
	 viewBox="0 0 360 360" style="enable-background:new 0 0 360 360;" xml:space="preserve">
<g>
	<path d="M87.9,21.7C107.8,7.2,137.5,0,176.8,0c75.9,0,113.8,26.5,113.8,79.4c0,21.6-8.9,39.5-26.7,53.7
		c-17.8,14.2-43.4,24.1-76.6,29.7v1c41.3,3,71.7,12.7,91.4,29c19.6,16.3,29.5,37.4,29.5,63.4c0,32-12.9,57.3-38.7,75.9
		c-25.8,18.6-61.7,28-107.6,28c-18,0-34.7-2-50.2-6c-15.5-4-29.3-11.9-41.4-23.7c-12.2-11.8-18.2-25.9-18.2-42.2
		c0-16.3,3.9-29,11.7-37.9c7.8-9,18.6-13.5,32.2-13.5c13.6,0,24.5,3.6,32.5,10.7c8,7.2,12,15.7,12,25.5c0,9.8-1.3,18.2-4,25.2h-15.5
		c-2,5.3-3,10.8-3,16.5c0,23.6,14,35.5,41.9,35.5c19.6,0,33-7.5,40.2-22.5c7.2-15,10.7-36.6,10.7-64.9c0-28.3-3.4-48.8-10.2-61.7
		c-6.8-12.8-16.9-22.5-30.2-29.2c-12,2.7-26.5,4.8-43.4,6.5l-1.5-11c29.3-3,48.5-10,57.7-21c9.2-11,13.7-30.5,13.7-58.7
		c0-28.1-2.7-48.3-8.2-60.4C183,15.1,173.8,9,160.8,9c-13,0-22.2,3.9-27.7,11.7c-5.5,7.8-8.2,15.2-8.2,22.2s1,13.2,3,18.5h14.5
		c2.7,7,4,15.4,4,25.2c0,9.8-4.2,18.3-12.5,25.5c-8.3,7.2-19.3,10.7-33,10.7c-13.7,0-24.2-4.4-31.7-13.2
		c-7.5-8.8-11.2-19.9-11.2-33.2C57.9,54.4,67.9,36.2,87.9,21.7z"/>
</g>
</svg>
