<?xml version="1.0" encoding="utf-8"?>
<!-- Generator: Adobe Illustrator 24.2.0, SVG Export Plug-In . SVG Version: 6.00 Build 0)  -->
<svg version="1.1" id="Layer_1" xmlns="http://www.w3.org/2000/svg" xmlns:xlink="http://www.w3.org/1999/xlink" x="0px" y="0px"
	 viewBox="0 0 360 360" style="enable-background:new 0 0 360 360;" xml:space="preserve">
<g>
	<path d="M202.5,237.8c0-31.7-2.8-53.9-8.3-66.6c-5.5-12.7-17.9-19-37.3-19c-19.4,0-40.6,7.2-63.6,21.5l-8.5-4V10l8-6
		c20.4,3,51.2,6.6,92.6,10.8c41.4,4.2,65.3,6.3,71.8,6.3c6.5,0,11.2-1.6,14-4.8c2.8-3.2,5.3-8.6,7.3-16.3l7.5,1
		c-5,51.1-11.5,81.4-19.5,91.1c-4.3,5-9.9,7.5-16.5,7.5c-6.7,0-20.7-2.8-42.1-8.5L98.9,62.6l-2.5,97.1c24.4-13,49.6-19.5,75.6-19.5
		s47.7,2.9,65.1,8.8c17.4,5.8,30.7,13.9,40.1,24.3c17.7,19.7,26.5,43.6,26.5,71.6c0,35.7-12.8,63.8-38.3,84.4
		C239.8,349.7,204.7,360,160,360c-24,0-46.2-5-66.6-15c-11-5.7-19.9-13.8-26.8-24.3c-6.8-10.5-10.3-22.7-10.3-36.5
		c0-13.8,3.9-25.3,11.8-34.3c7.8-9,18.7-13.5,32.5-13.5c13.8,0,24.7,3.4,32.5,10.3c7.8,6.8,11.8,15.7,11.8,26.5
		c0,10.9-1.5,20.1-4.5,27.8h-16.5c-2,5.3-3,11.6-3,18.8c0,7.2,2.8,14,8.5,20.5c5.7,6.5,14,9.8,25,9.8c11,0,19.4-1.8,25-5.3
		c5.7-3.5,10-7.8,13-12.8c3-5,5.3-12.8,7-23.5C201.5,293.1,202.5,269.5,202.5,237.8z"/>
</g>
</svg>
